<svg xmlns="http://www.w3.org/2000/svg" viewBox="0 0 782.29 800"><defs><style>.cls-1{isolation:isolate;}.cls-2,.cls-4,.cls-5,.cls-6{fill:none;stroke:#222;stroke-miterlimit:10;}.cls-2,.cls-4{stroke-width:7.09px;}.cls-3{fill:#222;}.cls-4{mix-blend-mode:multiply;}.cls-5{stroke-width:11.34px;}.cls-6{stroke-width:4.25px;}</style></defs><title>me_vector</title><g class="cls-1"><g id="Livello_2" data-name="Livello 2"><path class="cls-2" d="M299.57,294.93c-5.66,19.28,3.44,39.82,1.92,59.85-.69,9.19-3.63,18.21-3.27,27.41.42,10.7,5.23,20.68,10.21,30.16q12.82,24.38,28,47.4c7.61,11.54,16.3,23.33,29,28.73,11.87,5,25.7,3.66,37.73-1s22.61-12.33,33-20,20.76-15.4,28.3-25.75C475,427.38,479,409.42,482.7,392"/><path class="cls-3" d="M502,393.14c.76-1.76.79-3.47-1-4.57-1.61-1-3.66.08-5.16-.53l1.56,2c-.11,1.75,0,.92,1.06.12a12.27,12.27,0,0,0,1.73-2.19,63.38,63.38,0,0,0,4.77-7.91,85.71,85.71,0,0,0,9.77-34.82c.25-3.93,1.47-11.28-1.21-14.64-2.32-2.92-6.2-1.73-9-.14-5.29,3-13.34,9.08-19.17,3.48-4.43-4.26-4.28-14-5.16-19.59l-3.66-23.33c-.42-2.69-4.52-1.55-4.1,1.13l3.51,22.36c.92,5.89,1.13,12.65,3.56,18.15,4.15,9.4,14.59,8.69,22.41,4.52,1.93-1,5.58-4.63,7.55-3.4s1.17,6.66,1.1,8.95A81.68,81.68,0,0,1,500,380.18a57.79,57.79,0,0,1-5.62,7.7c-.65.82-1.23,1-1.31,2.21a2.16,2.16,0,0,0,1.56,2.05,6.14,6.14,0,0,0,1.91.17,4.14,4.14,0,0,0,1.27,0c.22,0,.44,0,.66,0,.72.15.66-.28-.19-1.28-1.07,2.48,2.59,4.65,3.67,2.14Z"/><path class="cls-3" d="M299.82,295.92c12.53,5.79,26.12,6.82,39.73,7.36,16,.65,32,1.24,48,1.28a431.2,431.2,0,0,0,48.08-2.23c13.35-1.45,27.44-3.08,38.54-11.31,2.17-1.62.05-5.31-2.15-3.68-11.49,8.53-26.5,9.8-40.3,11.14-14.67,1.43-29.43,1.87-44.17,1.83s-29.53-.58-44.29-1.14c-14-.53-28.34-.94-41.27-6.92-2.47-1.14-4.63,2.52-2.15,3.67Z"/><path class="cls-3" d="M380.21,165.26c-15.73-8-34-5.23-49.11,2.91-16.13,8.7-30.92,22.67-42.84,36.47-12.09,14-17.69,30.3-19.34,48.56-1.87,20.69-.93,41.76-1,62.51q-.17,37.77-.34,75.55c0,2.74,4.24,2.74,4.25,0,.18-40,0-80.1.57-120.13.23-17.52,1.33-35.9,10.23-51.46,8.72-15.22,23.56-28.31,37.29-39,16.21-12.61,38.36-21.87,58.17-11.75,2.43,1.25,4.59-2.42,2.15-3.67Z"/><path class="cls-3" d="M267.44,389.73c-1,36.94-2.6,74,.1,110.86,1.28,17.43,3,34.92,7.08,51.95,3.89,16.45,11.25,31.58,19.35,46.33,8.92,16.26,17.64,32.19,20,50.88.34,2.68,4.6,2.71,4.25,0-4.17-32.43-26.6-57.28-36.59-87.71-5.67-17.28-7.75-35.72-9.28-53.77-1.57-18.54-2.15-37.13-2.08-55.73.07-21,.83-41.88,1.38-62.81.07-2.74-4.18-2.74-4.26,0Z"/><path class="cls-3" d="M458.88,445.85c-.74,15-3.63,32,1,46.62,4.25,13.46,15.85,20.4,27.75,26.47,2.43,1.24,4.58-2.43,2.14-3.67-12-6.13-23.39-12.9-26.62-27-3.11-13.56-.69-28.68,0-42.42.13-2.73-4.12-2.73-4.25,0Z"/><path class="cls-3" d="M379.17,169.51c8.38-.65,15.14-5.73,23.24-7.39,10.53-2.16,21.38,1.88,31,5.7a75.77,75.77,0,0,1,25.06,15.62c6.57,6.26,12.25,13.36,17.88,20.45,1.71,2.14,4.7-.89,3-3-12.22-15.36-24.54-28.94-43.09-36.47-9.21-3.73-19.12-7.5-29.23-7.09s-18.09,7.17-27.92,7.94c-2.71.21-2.74,4.46,0,4.25Z"/><path class="cls-3" d="M476.47,203.93c58.59,66.08,48.84,162.37,46.09,244q-1.27,37.57-2.54,75.17c-.1,2.73,4.16,2.73,4.25,0,1.61-46.45,3.72-92.93,4.56-139.4.78-42.92-1.33-86.81-16.6-127.39-7.62-20.25-18.37-39.16-32.75-55.38-1.82-2-4.82,1-3,3Z"/><path class="cls-3" d="M345.8,441.44c8,3.45,17.58,7.29,26.42,6,5.14-.76,10-2,15.26-2.12s10.41,0,15.62,0c2.73,0,2.74-4.24,0-4.25-8.59-.05-17.39-.65-25.86,1-5.19,1-9.38,1.85-14.63.57A93.29,93.29,0,0,1,348,437.77c-2.49-1.07-4.66,2.59-2.15,3.67Z"/><path class="cls-4" d="M352.86,410.53c-1.94-1.32-1.53-1.15-3.47-2.47-3.05-2.09-5.62-4.39-6.11-8.06a12.7,12.7,0,0,1,.29-5.95c2.23-6,3.28-7.93,5.46-11.28"/><path class="cls-4" d="M367.21,413.4A18.4,18.4,0,0,1,383,407.58c1.15.15,2.47,1.38,2.19,2.51s-2.41.92-2.38,2.21a12.79,12.79,0,0,0,11.15-7.72c1.23-3,1-6.89-1.58-8.78"/><path class="cls-2" d="M338.7,436.7c1.47,1.17,3.05,2.4,4.93,2.54,2.42.18,4.54-1.49,6.76-2.48a12.93,12.93,0,0,1,10.45,0c2.26,1,4.45,2.72,6.9,2.41,1.85-.23,3.35-1.58,5.11-2.17,4.07-1.37,8.29,1.43,12.57,1.8"/><path class="cls-2" d="M385.22,438.59a79.91,79.91,0,0,0,28.27,3.75"/><path class="cls-2" d="M348.35,442.2a6.07,6.07,0,0,0,.92,3c3.43,6.27,10.18,10.07,17.05,12,8.14,2.35,17.33,2.46,24.67-1.77,5.54-3.19,9.56-8.54,15-11.91"/><path class="cls-5" d="M427.85,659.5c17-14,35.8-41.25,48.8-62.25,3-6,6-11,8-17,7-22,5-44,4.51-65.76"/><path class="cls-2" d="M455,550.37a309.8,309.8,0,0,0,33.58-5.45"/><path class="cls-2" d="M486.89,558.92a150.26,150.26,0,0,1-14.3,8.49"/><path class="cls-4" d="M410.75,550.38q5.47-25.87,13-51.24"/><path class="cls-2" d="M441.65,351.57a6.75,6.75,0,0,0,3.57,3.09,14.28,14.28,0,0,0,4.06.63"/><path class="cls-2" d="M438,354.23a6.93,6.93,0,0,0,3.89,4"/><path class="cls-2" d="M432.22,355.29a7,7,0,0,0,1.81,4.2"/><path class="cls-2" d="M426.84,357.78a25.91,25.91,0,0,1-.92,4"/><path class="cls-2" d="M420.64,355.59a9.49,9.49,0,0,1-3,4"/><path class="cls-2" d="M415.38,355.19c-1.56,1.51-3.58,3.1-5.73,3.38"/><path class="cls-2" d="M407.65,353.57a20.7,20.7,0,0,1-5,1.87"/><path class="cls-2" d="M398.78,346.88a39.65,39.65,0,0,0,20.77,9.48,29.88,29.88,0,0,0,21.82-5.76c1-.79,2-1.66,2.95-2.47a25.83,25.83,0,0,1,5.36-3.49"/><path class="cls-2" d="M318.65,351.57c-1.22,1-3.59,3.82-5.1,4.35a4.47,4.47,0,0,1-4.52-.67"/><path class="cls-2" d="M323.65,353.57c-2,1.8-5.32,4.1-7.94,4.81"/><path class="cls-2" d="M327.65,355.57c0,1-2,2-3.07,2.9a3.07,3.07,0,0,1-1,.73"/><path class="cls-2" d="M332.62,354.31a7.19,7.19,0,0,1-.55,4.14"/><path class="cls-2" d="M337.88,354.18a6.67,6.67,0,0,1,0,3.38"/><path class="cls-2" d="M343.44,352.81a4.86,4.86,0,0,0,1.71,2.94"/><path class="cls-2" d="M312.62,347.11a38,38,0,0,0,11.13,6.07,21.84,21.84,0,0,0,6.13,1.29c4.5.2,8.83-1.59,13-3.34a21,21,0,0,0,6.72-3.88"/><path class="cls-6" d="M385.05,316.54c.63,2.9,3.6,4.82,6.55,5.19s5.9-.49,8.75-1.33L412,317c8-2.37,16.08-4.75,24.39-5.63s17-.19,24.51,3.36"/><path class="cls-6" d="M384.54,314.74a195.68,195.68,0,0,1,46.26-9.24,31.78,31.78,0,0,1,8.27.15,34.67,34.67,0,0,1,7,2.35l7.22,3c.9.38,1.95,1,2,1.93"/><path class="cls-6" d="M392.12,320.75a12,12,0,0,1,1.63-7.93"/><path class="cls-6" d="M398.09,319.91a14.89,14.89,0,0,1,3.62-9.44"/><path class="cls-6" d="M405.46,318.88a17.68,17.68,0,0,1,5.24-9.73"/><path class="cls-6" d="M414.2,316a1.72,1.72,0,0,1,.27-1.37,26.64,26.64,0,0,1,5.45-7.08"/><path class="cls-6" d="M424.07,313.71a7.73,7.73,0,0,1,2.68-4,37.1,37.1,0,0,0,3.67-3.29"/><path class="cls-6" d="M435.18,311.45a13.46,13.46,0,0,0,5.44-3.45"/><path class="cls-6" d="M342.8,322.32a3,3,0,0,0,.46-3.71,5.27,5.27,0,0,0-1.6-1.48c-4.08-2.74-8.86-4.19-13.57-5.61l-14.73-4.45c-2.86-.86-5.94-1.72-8.75-.74-2.38.84-4.13,2.85-5.75,4.78"/><path class="cls-6" d="M342.44,322.37c-14.61-1.28-28.38-7.37-42.82-9.92"/><path class="cls-6" d="M335.47,320.46a9.58,9.58,0,0,0-2.53-6.15"/><path class="cls-6" d="M327.39,318.87a24.66,24.66,0,0,0-4.61-8"/><path class="cls-6" d="M318.54,317a19.56,19.56,0,0,0-5.24-8.13"/><path class="cls-6" d="M308.11,313.67a7.39,7.39,0,0,0-3.5-5.72"/><path class="cls-3" d="M351.87,440.38c2.72,0,5.34,2,7.87,2.88a31.33,31.33,0,0,0,7,1.41c5.6.55,11.21-.17,16.76-.91,2.28-.3,3-3.37.56-4.17-3.51-1.16-7.57-2.89-11.34-2.51-1.81.18-3.43,1-5.2,1.35a16.1,16.1,0,0,1-9.74-1.26c-2.48-1.1-4.65,2.56-2.15,3.67a20.94,20.94,0,0,0,11.37,2c1.94-.25,3.74-1.17,5.63-1.42,3.28-.43,7.22,1.3,10.3,2.32l.57-4.18c-5.53.74-11.18,1.51-16.76.91-5.25-.56-9.68-4.25-14.85-4.29-2.74,0-2.74,4.23,0,4.25Z"/><path class="cls-3" d="M385.07,443.58c2.73,0,2.74-4.25,0-4.25s-2.74,4.25,0,4.25Z"/><path class="cls-3" d="M351.79,446.34A33.61,33.61,0,0,0,374,458.06c4,.44,8.41.48,12.15-1.09,4.49-1.89,8.45-6,12.23-8.91,1.64-1.28.07-3.44-1.5-3.63a84.37,84.37,0,0,0-21.94.18c-6.73.95-18.15,6-22.52-1.72l-.76,2.9c.94-.39,4,2.62,4.95,3.23a26.13,26.13,0,0,0,4.48,2.26,44.33,44.33,0,0,0,11.71,2.6c5.8.63,15.55,2.42,17.29-5.24a2.15,2.15,0,0,0-2.05-2.69c-6.54.35-13,1-19.52,1.92l1.13,4.1c9.23-2,19.32,1.39,27.45-4.74,1.44-1.09,1.29-4.26-1.07-4l-15.42,1.93c-2.65.33-2.75,4.51,0,4.25l16.77-1.54c2.7-.25,2.72-4.51,0-4.25l-16.77,1.54v4.25l15.42-1.92-1.08-4c-7.55,5.69-17.73,2.42-26.43,4.31-2.73.6-1.5,4.48,1.13,4.1q9.17-1.29,18.39-1.77L386,447.51c-1.35,6-20.19,1.1-23.5-.26-4.39-1.8-8-7.26-13-5.13a2.16,2.16,0,0,0-.76,2.91c3.6,6.39,10.78,6.85,17.32,5.61,10.43-2,20.19-3.22,30.81-2l-1.5-3.63c-3.32,2.59-6.78,6.05-10.6,7.81-3.5,1.6-8,1.41-11.72.82a29.52,29.52,0,0,1-18.3-10.35c-1.76-2.1-4.75.92-3,3Z"/><path class="cls-3" d="M379.07,173.49c-6.36-2.85-12.84-5.54-19.94-4.63-6.42.83-12.41,4.06-18,7.18a139.09,139.09,0,0,0-33.84,26.79c-1.86,2,1.14,5,3,3a135.57,135.57,0,0,1,28.56-23.52c5-3.08,10.41-6.27,16.05-8.11,7.94-2.58,14.69-.31,22,3,2.48,1.1,4.64-2.56,2.15-3.67Z"/><path class="cls-3" d="M350.7,198.53c-8.65,11.53-3.4,28.29,9.78,33.5,12.94,5.11,28.73-4.07,27.87-18.74-.84-14.25-16.69-20.33-28.59-14.91-12.72,5.78-19.77,21-24.22,33.39-2.69,7.5,6.4,12.66,12.49,9.6,13-6.55,20.75-19.05,22.61-33.24.86-6.51-7.81-10.46-12.79-7.34-15,9.38-28.32,21.14-41.46,33l13.36,1.72,0-.16v4.52c.5-3.65,4.26-7.21,6.46-10,2.49-3.22,5.08-6.37,7.73-9.46a266.17,266.17,0,0,1,18.63-19.52c5.78-5.49-.2-17.57-8.28-14.21a94.64,94.64,0,0,0-35.4,24.95l13.35,1.72c-1.91-3.79,1.33-8.51,4-11.08,4.3-4.23,10-6.81,15.08-10,4.7-3,7.91-6.93,13.7-6.93,6.65,0,12.06-.55,17.31-5,3.41-2.9,3.16-9.08,0-12-5.39-5-12.1-5-19.06-4.46a108.83,108.83,0,0,0-20.2,3.36,105.1,105.1,0,0,0-76.49,84.7c-.73,4.53,1.16,9.15,5.94,10.46,4.05,1.11,9.73-1.38,10.46-5.94a90.85,90.85,0,0,1,29.88-54.61,85.35,85.35,0,0,1,27.6-16,94.24,94.24,0,0,1,16.85-4.3,74.76,74.76,0,0,1,7.62-.77c1.36-.08,2.78,0,4.14-.15.78-.09,2.06.51,1.23-.27v-12c.71-.61-1.62,0-2.48.07-1.4,0-2.81-.07-4.21,0a24.68,24.68,0,0,0-11.27,2.58c-3.43,1.83-6.33,4.58-9.6,6.67s-6.59,3.87-9.8,5.95c-12.89,8.36-23.13,23-15.34,38.42,2.37,4.69,9.88,5.7,13.35,1.72A76.56,76.56,0,0,1,358.84,203l-8.27-14.21a263.46,263.46,0,0,0-23.8,25.74c-6.11,7.59-18.2,19.05-11.71,29.54a8.64,8.64,0,0,0,13.36,1.72c12.08-10.86,24.19-21.67,38-30.3l-12.79-7.34c-1.09,8.26-7,14.93-14.19,18.56l12.49,9.6a62.9,62.9,0,0,1,9.41-17.77c1.44-1.81,6.47-7.34,9.4-5,2.28,1.81-1.79,3.28-3.36,3-5.08-1-4.35-6.24-2-9.37,2.76-3.68.59-9.51-3.05-11.64-4.35-2.54-8.87-.63-11.64,3.05Z"/><path class="cls-3" d="M269.71,248.76a169.42,169.42,0,0,1-3.89,33.82l16.7,2.26a161.73,161.73,0,0,1,1.91-34.4c1.85-11-12.19-14.55-16.4-4.52-5,11.84-3.46,26.85-2.94,39.4a332.19,332.19,0,0,0,4.59,42.07c.78,4.53,6.35,7.07,10.47,5.94,4.79-1.32,6.71-5.92,5.94-10.47a295.55,295.55,0,0,1-4-37.54c-.47-11.09-2.07-24.42,2.33-34.88L268,245.92a182.57,182.57,0,0,0-2.52,38.92c.43,9.17,14.56,12.05,16.71,2.26a193.2,193.2,0,0,0,4.5-38.34c.17-10.95-16.83-10.95-17,0Z"/><path class="cls-3" d="M269.65,326a801.64,801.64,0,0,0-5.39,113.93c.27,10.93,17.27,11,17,0A801.63,801.63,0,0,1,286.65,326c.55-4.57-4.29-8.51-8.5-8.51-5,0-8,3.93-8.5,8.51Z"/><path class="cls-3" d="M273.9,231.84c-16.1,57.08-9,116.71-1.53,174.54.59,4.56,3.49,8.51,8.51,8.51,4.13,0,9.09-3.92,8.5-8.51-7.27-56.21-14.74-114.52.92-170,3-10.55-13.42-15.06-16.4-4.52Z"/><path class="cls-3" d="M268.18,421.44l.15,43.51,16.7-2.26q-2.28-14.82-4.19-29.7c-1.34-10.57-16.6-11.26-17,0a317.42,317.42,0,0,0,4.88,67.28c.81,4.52,6.32,7.07,10.46,5.93,4.77-1.31,6.75-5.92,5.94-10.46A295.73,295.73,0,0,1,280.84,433h-17q2.19,17.14,4.8,34.23c1.49,9.62,16.74,7.09,16.71-2.27l-.15-43.51c0-10.94-17.05-11-17,0Z"/><path class="cls-3" d="M270,498a180.85,180.85,0,0,0,17.76,97.36c4.46,9.1,13.22,19.11,24.61,14.51,4.25-1.71,7.25-5.66,5.93-10.46-1.11-4-6.17-7.66-10.46-5.94-1.64.67-.41.9-1.67-.25s-2.13-3.28-2.94-4.86c-1.81-3.55-3.47-7.2-5-10.9a170.33,170.33,0,0,1-8.16-26.21,167.72,167.72,0,0,1-3.1-53.25c.44-4.57-4.23-8.5-8.51-8.5-5,0-8.06,3.91-8.5,8.5Z"/><path class="cls-3" d="M287.9,589.81c3,20.51,19.43,36.2,22.55,56.7.69,4.55,6.4,7,10.46,5.94,4.85-1.33,6.63-5.9,5.94-10.46-1.47-9.65-5.58-17.58-9.79-26.25-4.81-9.92-11.13-19.36-12.76-30.45-.67-4.55-6.42-7-10.46-5.94-4.88,1.34-6.61,5.9-5.94,10.46Z"/><path class="cls-3" d="M363.55,655.26c7.59-19.61,7.75-40,8.28-60.74.28-10.94-16.72-10.94-17,0-.49,19.35-.58,37.9-7.67,56.22-1.65,4.28,1.83,9.33,5.94,10.46,4.81,1.32,8.8-1.64,10.46-5.94Z"/><path class="cls-3" d="M371.48,588.2l-4.39-91.65c-.53-10.9-17.54-11-17,0l4.39,91.65c.53,10.9,17.54,11,17,0Z"/><path class="cls-3" d="M363.54,489.66c-5.84-7.11-14.29-11.83-20.75-18.43A98,98,0,0,1,327,449.67c-4.54-8.3-18.76-2.68-15.54,6.55a29.1,29.1,0,0,0,8.49,13c8.28,7.07,20.37-4.91,12-12a12.33,12.33,0,0,1-4.12-5.48l-15.55,6.55a115,115,0,0,0,17.3,23.81c6.73,7.11,15.71,12.1,21.89,19.63,2.91,3.55,9,3,12,0,3.51-3.52,2.92-8.47,0-12Z"/><path class="cls-3" d="M331.24,457.28c-4.9-2.34-7.9-5.78-9.16-11.1l-15.54,6.56C311,460.65,316,468.21,324,472.91c7.05,4.14,16.49-4.39,11.63-11.64L315.12,430.7c-6.19-9.24-19.12-1.31-14.68,8.58A35.86,35.86,0,0,0,314.57,455c6.94,4.31,16.61-4.56,11.63-11.64-10.23-14.53-20.93-29.61-26.26-46.75a65.6,65.6,0,0,1-2.86-25.47c.84-10.09,2.56-19.58.34-29.64-2.35-10.68-18.76-6.16-16.4,4.52,2.09,9.47-.82,19.28-1.19,28.8a79.63,79.63,0,0,0,4.22,27.92c6,18,16.64,33.82,27.47,49.21l11.63-11.64a20.48,20.48,0,0,1-8-9.62l-14.68,8.58L321,469.85l11.63-11.63c-5.41-3.18-8.36-8.76-11.35-14.07-4.83-8.56-17.74-2.7-15.55,6.55a31.64,31.64,0,0,0,17,21.26c9.83,4.69,18.47-10,8.59-14.68Z"/><path class="cls-3" d="M296.59,370.92c3.84-14,3.06-28.32,2.81-42.65-.22-12.65.3-25.64,7.12-36.69l-15.54-2c2.12,7.88,9.33,10.06,16.54,11.11,8.16,1.18,16.35,2.1,24.57,2.67a378.26,378.26,0,0,0,49.71-.1c33.44-2.11,66.56-7.6,99.58-13.11,4.53-.76,7.06-6.36,5.94-10.46-1.32-4.81-5.92-6.7-10.46-5.94-29,4.84-58,9.64-87.25,11.95A415.61,415.61,0,0,1,346.68,287c-7.14-.17-14.28-.56-21.39-1.21q-5.67-.51-11.31-1.25c-1.93-.26-3.9-.48-5.81-.87l-1.27-.24q-3-1.2.48,1.6c-1.94-7.2-11.76-8.17-15.55-2-7.44,12.07-9.39,26.25-9.48,40.2-.09,14.45,1.72,29.08-2.16,43.21-2.91,10.57,13.49,15.08,16.4,4.52Z"/><path class="cls-3" d="M425.6,300.58c18.95-.89,37.08-6.07,55.12-11.55,10.44-3.18,6-19.6-4.52-16.41-16.54,5-33.22,10.14-50.6,10.95-10.9.51-11,17.52,0,17Z"/><path class="cls-3" d="M473.14,283.06q.76,12.56,1.53,25.1c.42,6.87.77,14.15,4.69,20.07s11.12,9.82,18.22,8.32a16.5,16.5,0,0,0,8.62-5c.69-.73,3.54-3.55,2.67-3.57,4.11.09,4.56,13.66,4.6,16.05a71,71,0,0,1-3.26,21.34A117.38,117.38,0,0,1,502.3,386c-1,2-2.27,4.79-4.28,6.07a5.66,5.66,0,0,1-1.64.73c-1.68.72-1.63-.95-.92.12l-5.08,12.49a36.88,36.88,0,0,1,6.52-1c10.87-.71,11-17.72,0-17a64.23,64.23,0,0,0-11,1.64c-5.12,1.25-8.09,8-5.09,12.5a18.35,18.35,0,0,0,21.57,7.24c7.82-2.69,12.65-9.68,15.94-16.9,7.34-16.13,13.6-34.17,12-52.16-.75-8.2-2.56-17.32-8.7-23.32-6.44-6.3-16.73-7.15-23.56-1.09a16.39,16.39,0,0,0-3.38,3.82,9.23,9.23,0,0,1-1.09,1.16c1.64-.05,2-.18,1-.39,0-.22-1.63-2.26-1.83-2.86a19.59,19.59,0,0,1-.71-3.8c-1.15-9.94-1.25-20.12-1.86-30.11-.66-10.88-17.67-10.95-17,0Z"/><path class="cls-3" d="M482.1,399c-.34,8.71-3.89,16.78-7.43,24.61-3.18,7.06-5.88,15.39-11.27,21.09-7.51,8,4.49,20,12,12,7-7.39,10.56-17,14.67-26.16,4.56-10.18,8.57-20.28,9-31.57.42-10.94-16.59-10.92-17,0Z"/><path class="cls-3" d="M460.14,450.45c-.28,13.06-.6,26.19.63,39.22.53,5.69,1.45,11.14,5.85,15.2s10.17,4.54,15.72,4.07c10.83-.91,10.93-17.93,0-17-1,.08-3.67.7-4.54.14,1,.67.14.15.14-.87,0-4.29-.72-8.68-.87-13-.32-9.25-.12-18.51.07-27.76.24-10.95-16.77-10.95-17,0Z"/><path class="cls-3" d="M475.05,498.15c-3.86,10.15,7.22,16.72,15.88,14.89,6.71-1.41,12.19-2,17.63,3.23,6.32,6.1,15.93-.1,14.21-8.27a108,108,0,0,1-2.23-24.19l-16.7,2.26,2.8,10.64c2.5,9.53,16.24,7.14,16.7-2.26L529,379.11c.22-4.51-4.07-8.61-8.5-8.5-6.45.16-9.37,4.4-12.46,9.5s-6,10-9,15.09c-5.88,10-11.68,20-17.28,30.13a236.43,236.43,0,0,0-14.45,30.32c-3.82,10.09-6.66,21.24-4.09,32,2.73,11.48,13.87,16.51,23.9,9.66,8-5.47,14.17-15.89,12.58-25.77-1.67-10.36-14.43-19-23.11-9.87-3.47,3.66-5,9.07-6.45,13.79a73.16,73.16,0,0,0-3.07,16.06c-.38,5.87,1.23,11.52,5.8,15.41a13.54,13.54,0,0,0,16.33,1c9.23-6.06,15.34-17.48,16.83-28.21.49-3.47,0-6.69-3-8.94-2.51-1.88-6.7-2.68-9.45-.66-9.26,6.76-13.73,17.59-10.7,28.88,1.77,6.6,12.36,8.86,15.54,2a97.48,97.48,0,0,0,8.81-32.14c.94-9.44-15.23-11.74-16.7-2.26a77.18,77.18,0,0,0,1.71,33.22c2.28,8.15,14.05,8,16.4,0a166.74,166.74,0,0,0,3.83-76.81c-1.43-7.85-11.76-7.43-15.55-2a209.53,209.53,0,0,0-24,45.53c-3,7.8,8.9,14.7,14.21,8.27A173.43,173.43,0,0,0,508,443.43l-14.68-8.58a346,346,0,0,0-13,33.49l16.4,4.52c4.32-15.1,12.42-28.85,16.42-44,3.76-14.34,3.82-29.46-3.24-42.79-5.13-9.67-19.82-1.09-14.69,8.59,12.47,23.52-8.53,51.5-14.89,73.72-3,10.58,13,14.87,16.4,4.52A303.42,303.42,0,0,1,508,443.43c1.88-4.19,1.22-9.14-3.05-11.63-3.8-2.23-9.53-1.05-11.63,3.05a154.3,154.3,0,0,1-18.22,28l14.22,8.27a191.65,191.65,0,0,1,22.25-41.46l-15.54-2a147.46,147.46,0,0,1-3.83,67.77h16.4a56.79,56.79,0,0,1-1.71-24.18l-16.71-2.26a73.24,73.24,0,0,1-6.48,23.56l15.54,2c-.91-3.39-.13-7.48,2.89-9.68l-12.5-9.6a30.39,30.39,0,0,1-3.37,10.92,26.46,26.46,0,0,1-3.09,4.46c-.68.76-1.39,1.49-2.13,2.18q-3.37,2.28,2.8,1.29c.47-.54.24-2.7.36-3.66a57.45,57.45,0,0,1,1.39-7q.87-3.46,2.05-6.83c.29-.83.59-1.66.92-2.48.67-1.4.8-1.52.38-.34l-4.3,1.16-1.6-.74a1,1,0,0,1,0,.75,11.05,11.05,0,0,0-.61,2.14,15.5,15.5,0,0,1-3,4.49c-.37.41-2,1.46-2.18,1.84l-.55.25,3.3,1.15c.2-.22-.83-6.22-.8-7.16.38-10.86,5.94-21.94,10.7-31.49,5.2-10.41,11.06-20.5,16.88-30.58,6-10.39,11.59-21.73,18.76-31.36l-3.05,3,1.06-.79-4.3,1.16,1.2,0-8.5-8.51-5.66,115.34L523,492.19l-2.8-10.64c-2.46-9.36-16.54-7.29-16.7,2.26a128.24,128.24,0,0,0,2.83,28.71l14.21-8.27a32.82,32.82,0,0,0-16.53-8.87,32.24,32.24,0,0,0-9.55-.46c-2.84.31-6.1,1.72-8.82,1.5l4.29,1.16,1.08,1.62v4.52l.4-1.05c1.64-4.29-1.81-9.33-5.93-10.46-4.79-1.32-8.83,1.63-10.47,5.94Z"/><path class="cls-3" d="M508.73,329.76c10.94,0,11-17,0-17s-11,17,0,17Z"/><path class="cls-3" d="M379,187.62c6.51.52,12.07-1.88,17-6,7.55-6.22-2.15-18.2-10.3-13.36l.81-.16,2,15.54c22.82-17.58,49.69,1.41,65.85,18.66a207.85,207.85,0,0,1,43.07,70,210.42,210.42,0,0,1,11.37,46l12.8-7.34a103.44,103.44,0,0,0-25.5-8.13L502,313.39a86.31,86.31,0,0,0,.39-34.56l-15.54,6.55,10.23,21.55,14.68-8.59a317.44,317.44,0,0,0-23-37.06c-2.68-3.73-7.41-5.53-11.64-3.06-3.68,2.16-5.74,7.89-3.05,11.64a319,319,0,0,1,23,37.07c5.16,9.77,19.32,1.18,14.68-8.59L501.58,276.8c-4.39-9.24-17.21-2.33-15.55,6.55a64.68,64.68,0,0,1-.39,25.52c-.89,4.15,1.2,9.64,5.94,10.46A87.28,87.28,0,0,1,513,325.74c5.08,2.33,13.68-.25,12.79-7.34a230.44,230.44,0,0,0-30.71-90,226.67,226.67,0,0,0-28.16-37.51c-10.76-11.59-23.12-21.88-38.07-27.5-15.78-5.93-35.3-4.93-48.95,5.59-5.63,4.33-5.53,13.22,2,15.54A14.59,14.59,0,0,0,394.24,183l-10.3-13.36c-1.49,1.23-3.22,1.12-5,1-10.92-.87-10.86,16.14,0,17Z"/><path class="cls-3" d="M307.26,267c4.67,6.13-.27,14.13-6,15.93a5.33,5.33,0,0,1-4,.65q2.78,1,.34-.06c4.14,1.37,7.88,3.52,12.15,4.54,8.73,2.09,17.87,2.23,26.79,2.61q25.93,1.13,51.87,2.07c17.7.64,35.43,1.95,53-1,7.81-1.31,15.42-3.55,23.14-5.27,1.77-.39,3.55-.74,5.33-1.08,5.35-1-2.84.05,2.56-.37,1.77-.14,3.54-.25,5.31-.24q1.77,0,3.54.15-2.35-.45.79.14c6.89,1.28,13.42-.33,17.87-6.09a17.07,17.07,0,0,0,1.33-18.89c-9.77-16.7-19.58-33.45-31.3-48.87-12.2-16.05-25.4-30.78-44.51-38.49-18.68-7.53-41.08-5.29-60.47-2-18.3,3.1-36.57,9.91-51.45,21.15-16.95,12.79-30.3,30.33-35.06,51.33-2.66,11.78,5.21,20.17,16.4,21.53A984,984,0,0,0,451,271.1c9.28-.36,16.88-7.5,17-17,.14-11.1-6.25-19.83-14.14-27a222.71,222.71,0,0,0-21.56-17.3c-14-9.72-31.5-18-48.87-17.64-8.21.17-16.86,2.12-23.66,6.91-9.32,6.57-15.91,18.12-13.11,29.8a23.24,23.24,0,0,0,10.35,14.61c5.29,3.26,11.51,3.64,17.5,4.37a200.16,200.16,0,0,0,29.37,1.4c8.89-.21,17.43-7.67,17-17-.41-9-7.48-17.24-17-17a202.13,202.13,0,0,1-20.59-.51c-1.63-.13-3.26-.28-4.88-.45.12,0-5.18-.68-3.27-.36-3.38-.56-4.18-2.19,1,3.36q5.32,3.06,3.54,8.85l.37-1.33-.74,1.88q1.23-1.91,0-.17t.21,0l-1.62,1.23a15.51,15.51,0,0,1,1.51-.91c1.12-.58.67-.42-1.33.47.48-.57,2.29-.69,3-.88,2.63-.77,1.09-.95-.15-.12.64-.43,2.48-.14,3.2-.15s2.72-.3,3.2.13q-3.33-.54-1.41-.21c.75.12,1.49.26,2.23.43a65.4,65.4,0,0,1,7.89,2.19c-.12,0,4.16,1.55,2.54.89s2.11,1,2.45,1.15a106.83,106.83,0,0,1,14.84,8.91c1.13.8,2.25,1.61,3.36,2.45-2.35-1.77,1.77,1.42,1.81,1.45,2.15,1.75,4.26,3.56,6.35,5.39s4.05,3.52,5.92,5.43c.43.43,3,4,1.21,1.32l-.44-1.41c.53,1.92.52,1.85,0-.23l17-17a984,984,0,0,1-156.15-6.38l16.4,21.53a65.63,65.63,0,0,1,3.12-10.17c-1.08,2.67.34-.54.81-1.46q1.39-2.7,3-5.27c.95-1.51,2-3,3-4.4s-.12.2-.32.42c.68-.76,1.31-1.56,2-2.33a82.5,82.5,0,0,1,7.66-7.53c.77-.67,1.56-1.32,2.36-2-.25.2-2,1.39-.39.33s2.92-2.06,4.44-3a114.65,114.65,0,0,1,10.32-5.66c.29-.14,2.95-1.34.71-.39.8-.34,1.62-.64,2.43-.95q2.85-1.1,5.75-2c3.88-1.24,7.83-2.28,11.81-3.14q3-.64,6-1.15l2.59-.42c-.76.12-2.84.32.7-.08q6.09-.69,12.22-1a118.83,118.83,0,0,1,12.52,0c.7,0,5,.56,2.57.18a54.51,54.51,0,0,1,6.92,1.56c1.14.33,2.25.74,3.38,1.13-.34-.12-2.1-1.08-.41-.16s3.28,1.67,4.87,2.63c1.35.83,2.66,1.73,3.95,2.64-2.25-1.58-.08-.08.32.27.81.7,1.62,1.39,2.42,2.1a102.7,102.7,0,0,1,7.88,8c1.07,1.2,2.11,2.41,3.14,3.65.73.88,1.45,1.77,2.18,2.66.22.28,1.78,2.21.75.9,12.11,15.47,22,32.69,31.86,49.6l19.21-25c-11.54-2.13-22.39-1.39-33.84,1-4.17.87-8.29,2-12.43,3-2.37.58-4.74,1.16-7.13,1.67-1.19.25-2.38.49-3.57.71-2.07.31-2.38.39-.95.23-9.48,1.39-19.29.75-28.81.42q-15-.51-29.93-1.09T344.53,257c-5.26-.22-10.52-.42-15.78-.68-1.83-.1-3.65-.24-5.48-.34q-3.18-.34-.91,0c-1.19-.19-2.38-.42-3.56-.7-.66-.16-7.26-2.35-4-1.11-2.83-1.09-5.53-2.54-8.46-3.37a25.77,25.77,0,0,0-18.75,1.55c-10.78,5.53-17.86,21.11-9.67,31.84,5.37,7,14.89,11.5,23.27,6.1,7-4.49,11.87-15.7,6.1-23.27Z"/><path class="cls-3" d="M349.15,635.75q1.2-20.82,2.12-41.65c.26-6,1-11.88-1.94-17.43A25.28,25.28,0,0,0,338.56,566c-8.17-4.2-17.85-3.82-26.44-1.12-7.77,2.44-11.72,8.63-12.48,16.4-.87,8.92,1.13,17.78,3.5,26.33l31.08-13.1c-3.14-5-6.53-9.77-9.09-15.08L298.42,600c-1.14-1.45.05.12.45.74.83,1.26,1.67,2.52,2.44,3.82a58.31,58.31,0,0,1,3.54,7.07l29.37-17.16q-4.68-7.46-8.78-15.23c-2.25-4.32-5.29-10.74-6.61-13.87.51,1.2-1.16-2.91-1.13-2.85-.43-1.08-.85-2.18-1.26-3.27q-1.54-4.12-2.92-8.29c-1.84-5.56-3.45-11.2-4.85-16.88q-2-8.12-3.38-16.35c-.24-1.45-.47-2.89-.69-4.34l-.25-1.74c.17,1.33.18,1.38,0,.16-.31-2.62-.6-5.24-.83-7.86a239.15,239.15,0,0,1-.17-38.32c.66-8.89-8.29-17.4-17-17-9.78.44-16.3,7.48-17,17-3.75,50.75,8.35,102.82,35.49,146,4.73,7.53,15.38,11.19,23.27,6.11,8.56-5.52,9.83-14.47,6.1-23.27-2.91-6.88-7.15-12.69-11.75-18.53-5.23-6.63-16.31-6-22.33-1.32-7,5.41-8.12,14.19-4.38,21.94,2.56,5.31,5.95,10.1,9.09,15.07a17,17,0,0,0,31.09-13.1c-.89-3.19-1.75-6.38-2.38-9.63s-.39,1.5-.16-2.27c.11-1.8.08-3.59.25-5.39l-12.48,16.4c1.06-.33,2.14-.57,3.21-.88,1.86-.35,1.51-.32-1.07.08a17,17,0,0,1,1.75-.06c1.34,0,.77-.07-1.7-.35,1.42.41,1.43.35,0-.19a6.07,6.07,0,0,1-2.74-1.84q-2.1-3.09-.7-.58l-2.32-8.58q-1.09,25.26-2.5,50.5c-.51,8.9,8.19,17.4,17,17,9.65-.43,16.46-7.48,17-17Z"/><path class="cls-3" d="M302.75,464.26c.78-17,.07-33.21-7.11-48.9-3.51-7.68-14.13-10-21.24-7s-13,12.18-9.84,20.06c6.05,15,13.43,29.18,23.25,42.1a190.1,190.1,0,0,0,16.23,19c5.38,5.42,11.4,10.15,16.76,15.58.6.6,1.16,1.25,1.77,1.85.23.23,2.1,2.42.6.5a34,34,0,0,1,2.7,4.19c.4.72.76,1.45,1.12,2.18,1.25,2.44-.72-2.15.19.44.64,1.81,1.22,3.62,1.71,5.48s.89,3.75,1.25,5.65c.15.81.28,1.63.43,2.45,0,.12.43,2.83.17,1-.29-2,.17,1.42.22,1.85l.27,2.47c.29,2.63.55,5.26.8,7.89.84,8.89,1.53,17.79,2.2,26.69.3,3.89.63,7.79.62,11.69a45.17,45.17,0,0,1-.24,5.33c.11-.9.59-2.53-.25.81-.3,1.19-.6,2.38-.95,3.56-2.33,7.88-5.06,15.4-6.64,23.5-1.78,9.17-3,18.47-3.92,27.76l33.4-4.52c-6.76-24.67-12.93-49.5-19.3-74.26q-4.6-17.88-9.45-35.68c-1.76-6.39-3.51-12.78-4.95-19.24a98.83,98.83,0,0,1-2.76-17.86l-31.69,8.59c3.32,5.28,6.47,10.67,9.38,16.19q2.07,3.94,4,8c.64,1.35,1.27,2.69,1.88,4,0-.08,2.12,4.82,1.13,2.47A223.5,223.5,0,0,1,316,563.81c2.06,8.66,12.4,14.64,20.92,11.88a17.36,17.36,0,0,0,11.88-20.92,247.4,247.4,0,0,0-31.29-74.41c-3.88-6.16-11.93-10.17-19.21-7.82-6.8,2.2-13,8.78-12.49,16.4,1.87,27.29,11.12,53.69,17.92,80,6.54,25.37,12.83,50.79,19.76,76a17,17,0,0,0,18.66,12.18c8.88-1.19,13.9-8.15,14.75-16.7.17-1.65.34-3.3.53-5,.08-.7.6-4.65.38-3.11-.3,2.1.2-1.27.27-1.73.12-.81.25-1.63.38-2.43q.52-3.25,1.15-6.5a170.19,170.19,0,0,1,5.8-20.86c5.83-17.71,2.74-36.65,1.13-54.82-1.55-17.41-2.5-36-11.26-51.54-8-14.32-22.64-23.53-33.36-35.66-1.46-1.65-2.89-3.34-4.28-5-.52-.64-1-1.28-1.55-1.93,1.43,1.83-.31-.44-.84-1.18q-3.68-5-6.94-10.29-3.48-5.62-6.49-11.53c-.88-1.72-1.72-3.46-2.54-5.21-.46-1-.92-2-1.36-3-1.23-2.78,1.45,3.61-.52-1.28l-31.09,13.1c-1.18-2.58.71,2.12.75,2.26.41,1.34.76,2.71,1.06,4.09a39,39,0,0,1,.77,4.16c-.38-3.26.07,2.18.08,2.28a178.79,178.79,0,0,1-.2,18.95c-.41,8.9,8.12,17.41,17,17a17.38,17.38,0,0,0,17-17Z"/><path class="cls-3" d="M287.62,302.8a69.06,69.06,0,0,1,.43-13.86c.3-2.28-2.17-4.25-4.25-4.25-2.55,0-3.95,2-4.26,4.25a69.8,69.8,0,0,0-.42,13.86c.38,5.43,8.88,5.47,8.5,0Z"/><path class="cls-6" d="M363.35,656c13.16-40.43,3.51-86.4,1.15-127.65a227.57,227.57,0,0,1,.57-37.74"/><path class="cls-3" d="M484.25,513.52c2.53.93,5,2.07,7.5,3,1.81.66,2.6-2.24.79-2.9-2.53-.92-5-2.07-7.5-3-1.81-.66-2.6,2.24-.79,2.89Z"/><path class="cls-3" d="M516.79,517.52l1.15,2.38a1.5,1.5,0,0,0,2.59-1.52L519.38,516a1.5,1.5,0,0,0-2.59,1.52Z"/><path class="cls-3" d="M517.81,519.62a5.14,5.14,0,0,0,2.87-1.21,2.13,2.13,0,0,0,0-3,2.17,2.17,0,0,0-3,0c.58-.48-.34.16,0,0,.16-.06.16-.06,0,0s-.19.06.12,0a2.18,2.18,0,0,0-2.12,2.13c0,1,.94,2.27,2.12,2.12Z"/><path class="cls-3" d="M469.15,447.2c2.73,0,2.74-4.26,0-4.26s-2.75,4.26,0,4.26Z"/><path class="cls-3" d="M483.56,394.29l2-.52a2.14,2.14,0,0,0,1.49-2.61,2.18,2.18,0,0,0-2.62-1.49l-2,.52a2.14,2.14,0,0,0-1.49,2.61,2.18,2.18,0,0,0,2.62,1.49Z"/><path class="cls-3" d="M483.26,394.15c7.59-2.32,15.21-3.86,19.87-10.85,1.53-2.28-2.16-4.41-3.67-2.14-3.9,5.85-11,7-17.33,8.89-2.61.8-1.5,4.9,1.13,4.1Z"/><path class="cls-3" d="M507.34,381.35c0-.24-.06-.24,0,0a3.92,3.92,0,0,1,0-.56c0,.26,0,.26,0,0a2.13,2.13,0,0,0-4.1-1.13,6,6,0,0,0,0,2.8,2.13,2.13,0,0,0,2.61,1.48,2.17,2.17,0,0,0,1.49-2.62Z"/><path class="cls-3" d="M489.26,332.19h-1.63a2.13,2.13,0,1,0,0,4.25h1.63a2.13,2.13,0,1,0,0-4.25Z"/><path class="cls-5" d="M477.85,505.5c34.86,12.1,57.93,29.1,116,62"/><path class="cls-5" d="M274.34,521.07c-26.33,18-37.49,27.43-72.49,55.43"/><path class="cls-3" d="M498.49,516.09c.46,0,.92.08,1.38.14-1.09-.15.52.11.73.15,1,.2,1.95.45,2.91.74a5,5,0,0,0,6.15-3.49,5.1,5.1,0,0,0-3.49-6.15,37.75,37.75,0,0,0-7.68-1.39c-2.61-.22-5.11,2.46-5,5a5.13,5.13,0,0,0,5,5Z"/><circle class="cls-5" cx="390.85" cy="398.5" r="264"/></g></g></svg>